<?xml version="1.0" encoding="UTF-8" standalone="no"?>
<svg
   xmlns:dc="http://purl.org/dc/elements/1.1/"
   xmlns:cc="http://creativecommons.org/ns#"
   xmlns:rdf="http://www.w3.org/1999/02/22-rdf-syntax-ns#"
   xmlns:svg="http://www.w3.org/2000/svg"
   xmlns="http://www.w3.org/2000/svg"
   height="1000"
   width="1000"
   version="1.1"
   viewBox="0 0 1000 999.99996"
   data-name="Layer 1"
   id="Layer_1">
  <metadata
     id="metadata21">
    <rdf:RDF>
      <cc:Work
         rdf:about="">
        <dc:format>image/svg+xml</dc:format>
        <dc:type
           rdf:resource="http://purl.org/dc/dcmitype/StillImage" />
        <dc:title></dc:title>
      </cc:Work>
    </rdf:RDF>
  </metadata>
  <defs
     id="defs4">
    <style
       id="style2">
      .cls-1 {
        fill: #fff;
      }

      .cls-2 {
        fill: red;
      }

      .cls-3 {
        fill: #0090e2;
      }
    </style>
  </defs>
  <g
     transform="matrix(4.7409093,0,0,4.7409093,-685.25103,0)"
     id="g12">
    <path
       style="fill:#ffffff"
       id="path6"
       d="m 276.52,3.75 -62.1,62.1 -4.03,4.03 -62.1,62.1 c -5,5 -5,13.13 0,18.13 l 57.07,57.07 c 5,5 13.13,5 18.13,0 l 62.1,-62.1 4.03,-4.03 62.1,-62.1 c 5,-5 5,-13.13 0,-18.13 L 294.65,3.75 c -5,-5 -13.13,-5 -18.13,0 z"
       class="cls-1" />
    <path
       style="fill:#ff0000"
       id="path8"
       d="m 280.55,7.78 -62.1,62.1 67.14,67.14 62.1,-62.1 c 2.78,-2.78 2.78,-7.29 0,-10.07 L 290.62,7.78 C 287.84,5 283.33,5 280.55,7.78 Z m 21.63,62.09 c 0,4.58 -1.86,8.74 -4.87,11.73 -3.01,3.01 -7.14,4.87 -11.73,4.87 -4.58,0 -8.74,-1.88 -11.73,-4.87 -3.01,-3.01 -4.87,-7.14 -4.87,-11.73 0,-4.58 1.86,-8.72 4.85,-11.73 3.01,-3.01 7.14,-4.87 11.75,-4.87 4.61,0 8.72,1.86 11.73,4.87 2.99,2.99 4.87,7.14 4.87,11.73 z"
       class="cls-2" />
    <path
       style="fill:#0090e2"
       id="path10"
       d="m 152.32,136.01 c -2.78,2.78 -2.78,7.29 0,10.07 l 57.07,57.07 c 2.78,2.78 7.29,2.78 10.07,0 l 62.1,-62.1 -67.14,-67.14 z m 55.19,5.03 c 0,4.58 -1.86,8.74 -4.87,11.73 -3.01,3.01 -7.14,4.87 -11.73,4.87 -4.58,0 -8.74,-1.88 -11.73,-4.87 -3.01,-3.01 -4.87,-7.14 -4.87,-11.73 0,-4.58 1.86,-8.72 4.85,-11.73 3.01,-3.01 7.14,-4.87 11.75,-4.87 4.58,0 8.72,1.86 11.73,4.87 2.99,2.99 4.87,7.14 4.87,11.73 z m 47.01,-0.03 c 0,4.58 -1.86,8.74 -4.87,11.73 -3.01,3.01 -7.14,4.87 -11.73,4.87 -4.58,0 -8.74,-1.88 -11.73,-4.87 -3.01,-3.01 -4.87,-7.14 -4.87,-11.73 0,-4.59 1.86,-8.72 4.85,-11.73 3.01,-3.01 7.14,-4.87 11.75,-4.87 4.58,0 8.72,1.86 11.73,4.87 2.99,2.99 4.87,7.14 4.87,11.73 z"
       class="cls-3" />
  </g>
</svg>
